<mxfile host="app.diagrams.net" modified="2024-05-28T19:51:11.898Z" agent="Mozilla/5.0 (Windows NT 10.0; Win64; x64) AppleWebKit/537.36 (KHTML, like Gecko) Chrome/125.0.0.0 Safari/537.36" version="24.4.9" etag="j3yFufy_28GvwG1EpvGX" type="github">
  <diagram name="第 1 页" id="cLwtOV7N7z8Rk1bSrCN3">
    <mxGraphModel>
      <root>
        <mxCell id="0" />
        <mxCell id="1" parent="0" />
      </root>
    </mxGraphModel>
  </diagram>
</mxfile>
